<!-- <svg class="shape-overlays menu-shape-overlays is-opened" viewBox="0 0 100 100" preserveAspectRatio="none">
    <path class="shape-overlays__path" d="M 0 0 H 0C 0 12.5 0 12.5 0 25 C 0 37.5 0 37.5 0 50 C 0 62.5 0 62.5 0 75 C 0 87.5 0 87.5 0 100 H 100 V 0"></path>
</svg> -->

<!-- <svg class="shape-overlays menu-shape-overlays is-opened" viewBox="0 0 100 100" preserveAspectRatio="none">
    <path class="shape-overlays__path" d="M 0 0 H 99.84C 99.84 12.5 86.94 12.5 86.94 25 C 86.94 37.5 99.84 37.5 99.84 50 C 99.84 62.5 86.84738077799484 62.5 86.9473807799484 75 C 86.94 87.5 99.84 84.5 99.84 100 H V 0"></path>
</svg> -->

<!-- <svg class="shape-overlays menu-shape-overlays is-opened" viewBox="0 0 100 100" preserveAspectRatio="none">
    <path class="shape-overlays__path" d="M 0 0 H 99.27C 99.27 12.5 69.84 12.5 69.84 25 C 69.84 37.5 99.27 37.5 99.27 50 C 99.27 62.5 69.84 62.5 69.84 75 C 69.84 87.5 99.27 87.5 99.27 100 H 100 V 0"></path>
</svg>

<svg class="shape-overlays menu-shape-overlays is-opened" viewBox="0 0 100 100" preserveAspectRatio="none">
    <path class="shape-overlays__path" d="M 0 0 H 84.25C 84.25 12.5 39.12 12.5 39.12 25 C 39.12 37.5 84.25 37.5 84.25 50 C 84.25 62.5 39.12 62.5 39.12 75 C 39.12 87.5 84.25 87.5 84.25 100 H 100 V 0"></path>
</svg> -->

<!-- <svg class="shape-overlays menu-shape-overlays is-opened" viewBox="0 0 100 100" preserveAspectRatio="none">
    <path class="shape-overlays__path" d="M 0 0 H 33.75C 33.75 12.5 26.21 12.5 26.21 25 C 26.21 37.5 33.75 37.5 33.75 50 C 33.75 62.5 26.21 62.5 26.21 75 C 26.21 87.5 33.75 87.5 33.75 100 H 100 V 0"></path>
</svg> -->

<!-- <svg class="shape-overlays menu-shape-overlays is-opened" viewBox="0 0 100 100" preserveAspectRatio="none">
    <path class="shape-overlays__path" d="M 0 0 H 7.17C 7.17 12.5 15.56 12.5 15.56 25 C 15.56 37.5 7.17 37.5 7.17 50 C 7.17 62.5 15.56 62.5 15.56 75 C 15.56 87.5 7.17 87.5 7.17 100 H 100 V 0"></path>
</svg> -->

<!-- <svg class="shape-overlays menu-shape-overlays is-opened" viewBox="0 0 100 100" preserveAspectRatio="none">
    <path class="shape-overlays__path" d="M 0 0 H 1.56C 1.56 12.5 7.61 12.5 7.61 25 C 7.61 37.5 1.56 37.5 1.56 50 C 1.56 62.5 7.61 62.5 7.61 75 C 7.61 87.5 1.56 87.5 1.56 100 H 100 V 0"></path>
</svg> -->

<!-- <svg class="shape-overlays menu-shape-overlays is-opened" viewBox="0 0 100 100" preserveAspectRatio="none">
    <path class="shape-overlays__path" d="M 0 0 H 0.33C 0.33 12.5 2.35 12.5 2.35 25 C 2.35 37.5 0.33 37.5 0.33 50 C 0.33 62.5 2.35 62.5 2.35 75 C 2.35 87.5 0.33 87.5 0.33 100 H 100 V 0"></path>
</svg> -->

<svg class="shape-overlays menu-shape-overlays is-opened" viewBox="0 0 100 100" preserveAspectRatio="none">
    <path class="shape-overlays__path" d="M 0 0 H 0C 0 12.5 0 12.5 0 25 C 0 37.5 0 37.5 0 50 C 0 62.5 0 62.5 0 75 C 0 87.5 0 87.5 0 100 H 100 V 0"></path>
</svg>

